<svg xmlns="http://www.w3.org/2000/svg" width="734.49" height="643.019" fill="none"><defs><linearGradient id="b" x1="364.762" x2="289.503" y1="477.772" y2="131.758" gradientUnits="userSpaceOnUse"><stop stop-color="#6823FF"/><stop offset="1" stop-color="#FFF" stop-opacity="0"/></linearGradient><filter id="a" width="734.49" height="643.019" x="0" y="0" color-interpolation-filters="sRGB" filterUnits="userSpaceOnUse"><feFlood flood-opacity="0" result="BackgroundImageFix"/><feBlend in="SourceGraphic" in2="BackgroundImageFix" result="shape"/><feGaussianBlur result="effect_layerBlur_1" stdDeviation="33.333"/></filter></defs><g filter="url(#a)"><path fill="url(#b)" fill-rule="evenodd" d="M424.78 458.86c-28.72 23.86-63.66 37.07-99.68 47.39-55.2 15.83-116.76 53.13-165.69 28.67-47.11-23.55-68.24-88.28-56-139.49 12.35-51.63 88.85-66.7 116.5-113.51 18.76-31.75-8.66-73.59 12.15-104.25 22.33-32.9 62.76-50.49 101.39-63.04 43.4-14.1 87.88-17.04 132.41-12.93 58.92 5.44 154.78-14.01 167.11 40.57 14.66 64.89-81.08 110.03-119.86 168.54-15.61 23.55-25.35 48.13-39.78 72.31-15.64 26.22-24.56 55.81-48.55 75.74"/></g></svg>