<svg xmlns="http://www.w3.org/2000/svg" width="165.493" height="34.68" fill="none"><path fill="#FFF" fill-rule="evenodd" d="M0 25.2c0 .98.49 1.48 1.47 1.48s1.46-.5 1.46-1.48V6l7.83 11.66c.42.62.92.94 1.48.94q.57 0 1.02-.24.44-.24.76-.7l7.78-11.6V25.2c0 .98.49 1.48 1.48 1.48.97 0 1.46-.5 1.46-1.48V1.47c0-.98-.41-1.47-1.22-1.47-.79 0-1.38.31-1.78.95l-9.31 14.11L3.09.95C2.67.31 2.13 0 1.47 0Q.73 0 .36.36 0 .73 0 1.47zm84.9-.34q1.82 1.82 5.68 1.82c.99 0 1.48-.5 1.48-1.48 0-.51-.13-.88-.38-1.1-.25-.24-.62-.36-1.1-.36-1.75 0-2.95-.32-3.6-.94q-.96-.96-.96-3.6V9.79h4.74c.97 0 1.46-.49 1.46-1.48 0-.97-.49-1.46-1.46-1.46h-4.74V3.47q0-.74-.37-1.11t-1.11-.37c-.97 0-1.46.5-1.46 1.48v3.38h-2.1q-.75 0-1.12.38-.36.36-.36 1.08 0 .74.37 1.11t1.11.37h2.1v9.41c0 2.56.61 4.44 1.82 5.66m-25.73.76c.95.69 2.26 1.04 3.94 1.04h6.56c1.95 0 3.39-.48 4.34-1.42.96-.96 1.44-2.42 1.44-4.36 0-1.95-.48-3.4-1.44-4.36-.95-.96-2.39-1.44-4.34-1.44h-6.46q-1.545 0-2.1-.54c-.36-.38-.54-1.07-.54-2.08q0-1.64.52-2.16c.35-.35 1.05-.53 2.12-.53h6.26c.73 0 1.28.09 1.64.27.37.16.63.47.76.94.12.44.29.78.52 1.02q.345.36 1.02.36c.49 0 .87-.14 1.14-.4q.42-.405.3-1.14c-.49-2.66-2.29-3.99-5.38-3.99h-6.26c-1.89 0-3.3.47-4.22 1.4-.91.92-1.36 2.33-1.36 4.23q0 2.75 1.38 4.15.01.01.02.03 1.4 1.38 4.18 1.38h6.46c1.11 0 1.85.19 2.24.58q.6.57.6 2.28 0 1.695-.6 2.28c-.39.37-1.13.56-2.24.56h-6.56c-.84 0-1.47-.1-1.88-.28-.41-.2-.69-.58-.84-1.12q-.195-.72-.54-1.08-.315-.36-1.02-.36c-.49 0-.88.14-1.16.42-.27.28-.36.66-.28 1.14.24 1.41.83 2.47 1.78 3.18m90.72-6.54v-1.13h14.14c.97 0 1.46-.49 1.46-1.47v-2c0-2.62-.62-4.54-1.86-5.77q-1.86-1.86-5.76-1.86h-3.28c-2.6-.02-4.53.58-5.78 1.82-1.24 1.23-1.86 3.17-1.86 5.81v4.6c0 2.58.62 4.5 1.86 5.74 1.25 1.24 3.18 1.86 5.78 1.86h3.28c2.25 0 4-.4 5.24-1.2 1.25-.82 2.01-2.06 2.26-3.72.08-.5-.01-.87-.26-1.12-.25-.27-.63-.4-1.12-.4-.47 0-.82.12-1.06.36-.23.24-.4.58-.5 1.02-.2.78-.65 1.34-1.34 1.66-.68.3-1.75.46-3.22.46h-3.28c-1.8 0-3.03-.34-3.7-1-.67-.67-1-1.89-1-3.66M50.53 8.31c0-.97-.49-1.46-1.48-1.46q-.73 0-1.1.37-.36.36-.36 1.09v12.55c-.17.97-.85 1.7-2.04 2.18-1.19.46-2.66.7-4.42.7h-1.12c-1.77 0-3-.34-3.68-1-.67-.67-1-1.9-1-3.7V8.31c0-.97-.49-1.46-1.48-1.46-.97 0-1.46.49-1.46 1.46v10.73c0 2.6.62 4.52 1.86 5.78q1.86 1.86 5.76 1.86h1.12c2.93 0 5.09-.85 6.46-2.54v1.06c0 .98.49 1.48 1.46 1.48.99 0 1.48-.5 1.48-1.48zM98.25 25.1c1.05 1.05 2.67 1.58 4.86 1.58h2.24q3.45 0 5.46-1.71.54-.45.98-1.03v1.26c0 .98.49 1.48 1.48 1.48.97 0 1.46-.5 1.46-1.48V14.48c0-2.6-.62-4.53-1.86-5.77q-1.86-1.86-5.76-1.86h-2.32c-2.28 0-4.05.36-5.3 1.06q-.75.42-1.27 1.02-.8.92-1.09 2.29c-.11.45-.03.82.24 1.1.28.26.66.4 1.16.4.45 0 .78-.1 1-.28.22-.2.43-.54.62-1.02.24-.6.7-1.02 1.4-1.26.7-.25 1.78-.37 3.24-.37h2.32q2.5 0 3.54.87c.69.57 1.06 1.62 1.12 3.14h-8.66c-2.2 0-3.83.52-4.88 1.58q-1.56 1.575-1.56 4.86 0 3.28 1.58 4.86m25.13 8.6c.89.65 2.14.98 3.74.98h7.44c1.89 0 3.28-.46 4.18-1.36.9-.91 1.36-2.31 1.36-4.2V8.31c0-.97-.49-1.46-1.46-1.46q-.75 0-1.12.38-.36.36-.36 1.08v.38a4.6 4.6 0 0 0-1.92-1.38c-.78-.3-1.7-.46-2.76-.46h-3.28c-2.63 0-4.56.62-5.8 1.84q-1.84 1.85-1.84 5.79v4.6c0 2.58.62 4.5 1.86 5.74 1.25 1.24 3.18 1.86 5.78 1.86h1.52c1.45 0 2.72-.22 3.8-.66s1.96-1.08 2.64-1.9v5c0 1.04-.18 1.73-.52 2.08-.34.36-1.03.54-2.08.54h-7.44c-.76 0-1.34-.09-1.72-.26-.38-.16-.63-.47-.76-.92-.14-.48-.31-.84-.52-1.08-.22-.24-.55-.36-1-.36-.51 0-.9.14-1.16.42s-.34.66-.26 1.16q.33 2.01 1.68 3m27.51-22.94c.67-.67 1.9-.99 3.7-.97h3.28q2.7 0 3.68 1.01c.67.65 1 1.88 1 3.68v.54h-12.66v-.54c0-1.82.33-3.06 1-3.72m-20.17 12.98h-1.52c-1.8 0-3.04-.34-3.7-1-.67-.68-1-1.9-1-3.66v-4.6c0-1.82.33-3.05 1-3.7.68-.66 1.91-.99 3.7-.99h3.28q2.28 0 3.48.71 1.2.675 1.2 2.52v7.56c0 1.08-.61 1.88-1.82 2.4-1.22.5-2.76.76-4.62.76m-25.37 0h-2.24c-1.38 0-2.3-.24-2.78-.72s-.72-1.41-.72-2.78q0-2.055.72-2.76c.48-.5 1.4-.74 2.78-.74h8.68v3.32c-.18.96-.57 1.7-1.18 2.24-.62.53-1.38.9-2.28 1.12q-1.36.32-2.98.32"/></svg>